<svg xmlns="http://www.w3.org/2000/svg" width="32" height="32" viewBox="0 0 32 32" fill="none">
  <!-- Book favicon for documentation site -->
  <rect width="32" height="32" rx="6" fill="#cc785c"/>
  <!-- Open book icon centered -->
  <path d="M7 8.5C7 7.7 7.7 7 8.5 7H13c1.7 0 3 1.3 3 3v14c0-1.1-0.9-2-2-2H8.5C7.7 22 7 21.3 7 20.5V8.5z" fill="white" opacity="0.9"/>
  <path d="M25 8.5c0-0.8-0.7-1.5-1.5-1.5H19c-1.7 0-3 1.3-3 3v14c0-1.1 0.9-2 2-2h5.5c0.8 0 1.5-0.7 1.5-1.5V8.5z" fill="white" opacity="0.9"/>
  <!-- Spine line -->
  <line x1="16" y1="9" x2="16" y2="23" stroke="#cc785c" stroke-width="1.5" opacity="0.5"/>
</svg>
