<svg xmlns="http://www.w3.org/2000/svg" width="36" height="36" viewBox="0 0 36 36" fill="none">
  <!-- Open book icon for documentation site -->
  <!-- Left page -->
  <path d="M4 7C4 5.9 4.9 5 6 5h6c2.2 0 4 1.8 4 4v20c0-1.7-1.3-3-3-3H6c-1.1 0-2-0.9-2-2V7z" fill="#cc785c" opacity="0.15" stroke="#cc785c" stroke-width="1.5" stroke-linejoin="round"/>
  <!-- Right page -->
  <path d="M32 7c0-1.1-0.9-2-2-2h-6c-2.2 0-4 1.8-4 4v20c0-1.7 1.3-3 3-3h7c1.1 0 2-0.9 2-2V7z" fill="#cc785c" opacity="0.15" stroke="#cc785c" stroke-width="1.5" stroke-linejoin="round"/>
  <!-- Spine -->
  <path d="M16 9v20M20 9v20" stroke="#cc785c" stroke-width="1" opacity="0.4"/>
  <!-- Text lines on left page -->
  <line x1="8" y1="11" x2="13" y2="11" stroke="#141413" stroke-width="1.2" stroke-linecap="round" opacity="0.5"/>
  <line x1="8" y1="14" x2="12" y2="14" stroke="#141413" stroke-width="1.2" stroke-linecap="round" opacity="0.35"/>
  <line x1="8" y1="17" x2="13" y2="17" stroke="#141413" stroke-width="1.2" stroke-linecap="round" opacity="0.25"/>
  <!-- Text lines on right page -->
  <line x1="23" y1="11" x2="28" y2="11" stroke="#141413" stroke-width="1.2" stroke-linecap="round" opacity="0.5"/>
  <line x1="23" y1="14" x2="27" y2="14" stroke="#141413" stroke-width="1.2" stroke-linecap="round" opacity="0.35"/>
  <line x1="23" y1="17" x2="28" y2="17" stroke="#141413" stroke-width="1.2" stroke-linecap="round" opacity="0.25"/>
</svg>
